<mxfile host="app.diagrams.net" modified="2024-07-08T06:48:51.756Z" agent="Mozilla/5.0 (Windows NT 10.0; Win64; x64) AppleWebKit/537.36 (KHTML, like Gecko) Chrome/126.0.0.0 Safari/537.36 Edg/126.0.0.0" etag="HimqkyvpnoUZCkQaEWRK" version="24.5.5" type="github">
  <diagram name="第 1 页" id="EOBvEBI27KjOjy6aKDMO">
    <mxGraphModel dx="1330" dy="985" grid="1" gridSize="10" guides="1" tooltips="1" connect="1" arrows="1" fold="1" page="1" pageScale="1" pageWidth="827" pageHeight="1169" math="0" shadow="0">
      <root>
        <mxCell id="0" />
        <mxCell id="1" parent="0" />
        <mxCell id="xqbtovnjNQGNgY8jdyhV-2" value="表现" style="swimlane;whiteSpace=wrap;html=1;fontSize=20;" vertex="1" parent="1">
          <mxGeometry x="70" y="130" width="390" height="940" as="geometry" />
        </mxCell>
        <mxCell id="xqbtovnjNQGNgY8jdyhV-6" value="UGameEngine" style="html=1;whiteSpace=wrap;fontSize=20;" vertex="1" parent="xqbtovnjNQGNgY8jdyhV-2">
          <mxGeometry x="50" y="70" width="160" height="50" as="geometry" />
        </mxCell>
        <mxCell id="xqbtovnjNQGNgY8jdyhV-7" value="UGameInstance" style="html=1;whiteSpace=wrap;fontSize=20;" vertex="1" parent="xqbtovnjNQGNgY8jdyhV-2">
          <mxGeometry x="50" y="170" width="160" height="50" as="geometry" />
        </mxCell>
        <mxCell id="xqbtovnjNQGNgY8jdyhV-8" value="FWorldContext" style="html=1;whiteSpace=wrap;fontSize=20;" vertex="1" parent="xqbtovnjNQGNgY8jdyhV-2">
          <mxGeometry x="50" y="270" width="160" height="50" as="geometry" />
        </mxCell>
        <mxCell id="xqbtovnjNQGNgY8jdyhV-9" value="UWorld" style="html=1;whiteSpace=wrap;fontSize=20;" vertex="1" parent="xqbtovnjNQGNgY8jdyhV-2">
          <mxGeometry x="50" y="380" width="160" height="50" as="geometry" />
        </mxCell>
        <mxCell id="xqbtovnjNQGNgY8jdyhV-10" value="ULevel" style="html=1;whiteSpace=wrap;fontSize=20;" vertex="1" parent="xqbtovnjNQGNgY8jdyhV-2">
          <mxGeometry x="50" y="490" width="160" height="50" as="geometry" />
        </mxCell>
        <mxCell id="xqbtovnjNQGNgY8jdyhV-11" value="APawn" style="html=1;whiteSpace=wrap;fontSize=20;" vertex="1" parent="xqbtovnjNQGNgY8jdyhV-2">
          <mxGeometry x="260" y="590" width="110" height="50" as="geometry" />
        </mxCell>
        <mxCell id="xqbtovnjNQGNgY8jdyhV-12" value="AActor" style="html=1;whiteSpace=wrap;fontSize=20;" vertex="1" parent="xqbtovnjNQGNgY8jdyhV-2">
          <mxGeometry x="50" y="670" width="160" height="50" as="geometry" />
        </mxCell>
        <mxCell id="xqbtovnjNQGNgY8jdyhV-13" value="UObject" style="html=1;whiteSpace=wrap;fontSize=20;" vertex="1" parent="xqbtovnjNQGNgY8jdyhV-2">
          <mxGeometry x="50" y="790" width="160" height="50" as="geometry" />
        </mxCell>
        <mxCell id="xqbtovnjNQGNgY8jdyhV-17" value="" style="endArrow=open;html=1;endSize=12;startArrow=diamondThin;startSize=14;startFill=0;align=left;verticalAlign=bottom;rounded=0;exitX=0.5;exitY=1;exitDx=0;exitDy=0;entryX=0.5;entryY=0;entryDx=0;entryDy=0;fontSize=20;" edge="1" parent="xqbtovnjNQGNgY8jdyhV-2" source="xqbtovnjNQGNgY8jdyhV-6" target="xqbtovnjNQGNgY8jdyhV-7">
          <mxGeometry x="-0.2" y="10" relative="1" as="geometry">
            <mxPoint x="400" y="490" as="sourcePoint" />
            <mxPoint x="560" y="490" as="targetPoint" />
            <mxPoint as="offset" />
          </mxGeometry>
        </mxCell>
        <mxCell id="xqbtovnjNQGNgY8jdyhV-18" value="" style="endArrow=open;html=1;endSize=12;startArrow=diamondThin;startSize=14;startFill=0;align=left;verticalAlign=bottom;rounded=0;exitX=0.5;exitY=1;exitDx=0;exitDy=0;entryX=0.5;entryY=0;entryDx=0;entryDy=0;fontSize=20;" edge="1" parent="xqbtovnjNQGNgY8jdyhV-2" source="xqbtovnjNQGNgY8jdyhV-7" target="xqbtovnjNQGNgY8jdyhV-8">
          <mxGeometry x="-0.2" y="10" relative="1" as="geometry">
            <mxPoint x="155" y="130" as="sourcePoint" />
            <mxPoint x="155" y="180" as="targetPoint" />
            <mxPoint as="offset" />
          </mxGeometry>
        </mxCell>
        <mxCell id="xqbtovnjNQGNgY8jdyhV-19" value="" style="endArrow=open;html=1;endSize=12;startArrow=diamondThin;startSize=14;startFill=0;align=left;verticalAlign=bottom;rounded=0;exitX=0.5;exitY=1;exitDx=0;exitDy=0;entryX=0.5;entryY=0;entryDx=0;entryDy=0;fontSize=20;" edge="1" parent="xqbtovnjNQGNgY8jdyhV-2" source="xqbtovnjNQGNgY8jdyhV-8" target="xqbtovnjNQGNgY8jdyhV-9">
          <mxGeometry y="10" relative="1" as="geometry">
            <mxPoint x="155" y="230" as="sourcePoint" />
            <mxPoint x="155" y="280" as="targetPoint" />
            <mxPoint as="offset" />
            <Array as="points">
              <mxPoint x="130" y="350" />
            </Array>
          </mxGeometry>
        </mxCell>
        <mxCell id="xqbtovnjNQGNgY8jdyhV-20" value="" style="endArrow=open;html=1;endSize=12;startArrow=diamondThin;startSize=14;startFill=0;align=left;verticalAlign=bottom;rounded=0;exitX=0.5;exitY=1;exitDx=0;exitDy=0;entryX=0.5;entryY=0;entryDx=0;entryDy=0;fontSize=20;" edge="1" parent="xqbtovnjNQGNgY8jdyhV-2" source="xqbtovnjNQGNgY8jdyhV-9" target="xqbtovnjNQGNgY8jdyhV-10">
          <mxGeometry y="10" relative="1" as="geometry">
            <mxPoint x="140" y="330" as="sourcePoint" />
            <mxPoint x="140" y="390" as="targetPoint" />
            <mxPoint as="offset" />
          </mxGeometry>
        </mxCell>
        <mxCell id="xqbtovnjNQGNgY8jdyhV-21" value="" style="endArrow=open;html=1;endSize=12;startArrow=diamondThin;startSize=14;startFill=0;align=left;verticalAlign=bottom;rounded=0;exitX=0.5;exitY=1;exitDx=0;exitDy=0;fontSize=20;" edge="1" parent="xqbtovnjNQGNgY8jdyhV-2" source="xqbtovnjNQGNgY8jdyhV-10" target="xqbtovnjNQGNgY8jdyhV-12">
          <mxGeometry y="10" relative="1" as="geometry">
            <mxPoint x="140" y="440" as="sourcePoint" />
            <mxPoint x="140" y="500" as="targetPoint" />
            <mxPoint as="offset" />
          </mxGeometry>
        </mxCell>
        <mxCell id="xqbtovnjNQGNgY8jdyhV-22" value="" style="endArrow=block;dashed=1;endFill=0;endSize=12;html=1;rounded=0;exitX=0.5;exitY=1;exitDx=0;exitDy=0;entryX=0.5;entryY=0;entryDx=0;entryDy=0;" edge="1" parent="xqbtovnjNQGNgY8jdyhV-2" source="xqbtovnjNQGNgY8jdyhV-12" target="xqbtovnjNQGNgY8jdyhV-13">
          <mxGeometry width="160" relative="1" as="geometry">
            <mxPoint x="630" y="490" as="sourcePoint" />
            <mxPoint x="790" y="490" as="targetPoint" />
            <Array as="points">
              <mxPoint x="130" y="750" />
            </Array>
          </mxGeometry>
        </mxCell>
        <mxCell id="xqbtovnjNQGNgY8jdyhV-24" value="" style="endArrow=block;dashed=1;endFill=0;endSize=12;html=1;rounded=0;exitX=0.5;exitY=1;exitDx=0;exitDy=0;entryX=1;entryY=0.5;entryDx=0;entryDy=0;" edge="1" parent="xqbtovnjNQGNgY8jdyhV-2" source="xqbtovnjNQGNgY8jdyhV-11" target="xqbtovnjNQGNgY8jdyhV-12">
          <mxGeometry width="160" relative="1" as="geometry">
            <mxPoint x="600" y="490" as="sourcePoint" />
            <mxPoint x="760" y="490" as="targetPoint" />
            <Array as="points">
              <mxPoint x="315" y="695" />
            </Array>
          </mxGeometry>
        </mxCell>
        <mxCell id="xqbtovnjNQGNgY8jdyhV-4" value="控制" style="swimlane;whiteSpace=wrap;html=1;fontSize=20;" vertex="1" parent="1">
          <mxGeometry x="460" y="130" width="710" height="940" as="geometry" />
        </mxCell>
        <mxCell id="xqbtovnjNQGNgY8jdyhV-25" value="UPlayer" style="html=1;whiteSpace=wrap;fontSize=20;" vertex="1" parent="xqbtovnjNQGNgY8jdyhV-4">
          <mxGeometry x="180" y="70" width="160" height="50" as="geometry" />
        </mxCell>
        <mxCell id="xqbtovnjNQGNgY8jdyhV-26" value="ULocalPlayer" style="html=1;whiteSpace=wrap;fontSize=20;" vertex="1" parent="xqbtovnjNQGNgY8jdyhV-4">
          <mxGeometry x="50" y="170" width="160" height="50" as="geometry" />
        </mxCell>
        <mxCell id="xqbtovnjNQGNgY8jdyhV-27" value="UNetDriver" style="html=1;whiteSpace=wrap;fontSize=20;" vertex="1" parent="xqbtovnjNQGNgY8jdyhV-4">
          <mxGeometry x="330" y="270" width="160" height="50" as="geometry" />
        </mxCell>
        <mxCell id="xqbtovnjNQGNgY8jdyhV-28" value="UNetConnection" style="html=1;whiteSpace=wrap;fontSize=20;" vertex="1" parent="xqbtovnjNQGNgY8jdyhV-4">
          <mxGeometry x="540" y="270" width="160" height="50" as="geometry" />
        </mxCell>
        <mxCell id="xqbtovnjNQGNgY8jdyhV-30" value="" style="endArrow=block;dashed=1;endFill=0;endSize=12;html=1;rounded=0;exitX=0.5;exitY=0;exitDx=0;exitDy=0;entryX=0.5;entryY=1;entryDx=0;entryDy=0;" edge="1" parent="xqbtovnjNQGNgY8jdyhV-4" source="xqbtovnjNQGNgY8jdyhV-26" target="xqbtovnjNQGNgY8jdyhV-25">
          <mxGeometry width="160" relative="1" as="geometry">
            <mxPoint x="-250" y="730" as="sourcePoint" />
            <mxPoint x="-250" y="800" as="targetPoint" />
            <Array as="points">
              <mxPoint x="130" y="150" />
              <mxPoint x="260" y="150" />
            </Array>
          </mxGeometry>
        </mxCell>
        <mxCell id="xqbtovnjNQGNgY8jdyhV-31" value="" style="endArrow=block;dashed=1;endFill=0;endSize=12;html=1;rounded=0;exitX=0.5;exitY=0;exitDx=0;exitDy=0;entryX=0.5;entryY=1;entryDx=0;entryDy=0;" edge="1" parent="xqbtovnjNQGNgY8jdyhV-4" source="xqbtovnjNQGNgY8jdyhV-28" target="xqbtovnjNQGNgY8jdyhV-25">
          <mxGeometry width="160" relative="1" as="geometry">
            <mxPoint x="140" y="180" as="sourcePoint" />
            <mxPoint x="270" y="130" as="targetPoint" />
            <Array as="points">
              <mxPoint x="620" y="150" />
              <mxPoint x="260" y="150" />
            </Array>
          </mxGeometry>
        </mxCell>
        <mxCell id="xqbtovnjNQGNgY8jdyhV-32" value="" style="endArrow=open;html=1;endSize=12;startArrow=diamondThin;startSize=14;startFill=0;align=left;verticalAlign=bottom;rounded=0;exitX=1;exitY=0.5;exitDx=0;exitDy=0;entryX=0;entryY=0.5;entryDx=0;entryDy=0;fontSize=20;" edge="1" parent="xqbtovnjNQGNgY8jdyhV-4" source="xqbtovnjNQGNgY8jdyhV-27" target="xqbtovnjNQGNgY8jdyhV-28">
          <mxGeometry y="10" relative="1" as="geometry">
            <mxPoint x="-100" y="330" as="sourcePoint" />
            <mxPoint x="-100" y="390" as="targetPoint" />
            <mxPoint as="offset" />
          </mxGeometry>
        </mxCell>
        <mxCell id="xqbtovnjNQGNgY8jdyhV-35" value="AGameMode" style="html=1;whiteSpace=wrap;fontSize=20;" vertex="1" parent="xqbtovnjNQGNgY8jdyhV-4">
          <mxGeometry x="120" y="380" width="170" height="50" as="geometry" />
        </mxCell>
        <mxCell id="xqbtovnjNQGNgY8jdyhV-38" value="ALevelScriptActor" style="html=1;whiteSpace=wrap;fontSize=20;" vertex="1" parent="xqbtovnjNQGNgY8jdyhV-4">
          <mxGeometry x="120" y="490" width="170" height="50" as="geometry" />
        </mxCell>
        <mxCell id="xqbtovnjNQGNgY8jdyhV-40" value="AController" style="html=1;whiteSpace=wrap;fontSize=20;" vertex="1" parent="xqbtovnjNQGNgY8jdyhV-4">
          <mxGeometry x="235" y="590" width="110" height="50" as="geometry" />
        </mxCell>
        <mxCell id="xqbtovnjNQGNgY8jdyhV-43" value="APlayerContoller" style="html=1;whiteSpace=wrap;fontSize=20;" vertex="1" parent="xqbtovnjNQGNgY8jdyhV-4">
          <mxGeometry x="460" y="540" width="160" height="50" as="geometry" />
        </mxCell>
        <mxCell id="xqbtovnjNQGNgY8jdyhV-44" value="AAIContoller" style="html=1;whiteSpace=wrap;fontSize=20;" vertex="1" parent="xqbtovnjNQGNgY8jdyhV-4">
          <mxGeometry x="460" y="635" width="160" height="50" as="geometry" />
        </mxCell>
        <mxCell id="xqbtovnjNQGNgY8jdyhV-46" value="" style="endArrow=block;dashed=1;endFill=0;endSize=12;html=1;rounded=0;exitX=0;exitY=0.5;exitDx=0;exitDy=0;entryX=1;entryY=0.5;entryDx=0;entryDy=0;" edge="1" parent="xqbtovnjNQGNgY8jdyhV-4" source="xqbtovnjNQGNgY8jdyhV-43" target="xqbtovnjNQGNgY8jdyhV-40">
          <mxGeometry width="160" relative="1" as="geometry">
            <mxPoint x="-65" y="650" as="sourcePoint" />
            <mxPoint x="-170" y="705" as="targetPoint" />
            <Array as="points">
              <mxPoint x="380" y="565" />
              <mxPoint x="380" y="615" />
            </Array>
          </mxGeometry>
        </mxCell>
        <mxCell id="xqbtovnjNQGNgY8jdyhV-49" value="" style="endArrow=block;dashed=1;endFill=0;endSize=12;html=1;rounded=0;exitX=0;exitY=0.5;exitDx=0;exitDy=0;entryX=1;entryY=0.5;entryDx=0;entryDy=0;" edge="1" parent="xqbtovnjNQGNgY8jdyhV-4" source="xqbtovnjNQGNgY8jdyhV-44" target="xqbtovnjNQGNgY8jdyhV-40">
          <mxGeometry width="160" relative="1" as="geometry">
            <mxPoint x="210" y="640" as="sourcePoint" />
            <mxPoint x="320" y="670" as="targetPoint" />
            <Array as="points">
              <mxPoint x="380" y="660" />
              <mxPoint x="380" y="615" />
            </Array>
          </mxGeometry>
        </mxCell>
        <mxCell id="xqbtovnjNQGNgY8jdyhV-50" value="UActorComponenrt" style="html=1;whiteSpace=wrap;fontSize=20;" vertex="1" parent="xqbtovnjNQGNgY8jdyhV-4">
          <mxGeometry x="120" y="790" width="190" height="50" as="geometry" />
        </mxCell>
        <mxCell id="xqbtovnjNQGNgY8jdyhV-63" value="Use" style="endArrow=open;endSize=12;dashed=1;html=1;rounded=0;exitX=0.5;exitY=1;exitDx=0;exitDy=0;entryX=0.5;entryY=0;entryDx=0;entryDy=0;fontSize=20;edgeStyle=orthogonalEdgeStyle;curved=1;" edge="1" parent="xqbtovnjNQGNgY8jdyhV-4" source="xqbtovnjNQGNgY8jdyhV-26" target="xqbtovnjNQGNgY8jdyhV-43">
          <mxGeometry width="160" relative="1" as="geometry">
            <mxPoint x="400" y="420" as="sourcePoint" />
            <mxPoint x="560" y="420" as="targetPoint" />
            <Array as="points">
              <mxPoint x="130" y="350" />
              <mxPoint x="540" y="350" />
            </Array>
          </mxGeometry>
        </mxCell>
        <mxCell id="xqbtovnjNQGNgY8jdyhV-5" value="数据" style="swimlane;whiteSpace=wrap;html=1;fontSize=20;startSize=23;" vertex="1" parent="1">
          <mxGeometry x="1170" y="130" width="470" height="940" as="geometry" />
        </mxCell>
        <mxCell id="xqbtovnjNQGNgY8jdyhV-52" value="USaveGame" style="html=1;whiteSpace=wrap;fontSize=20;" vertex="1" parent="xqbtovnjNQGNgY8jdyhV-5">
          <mxGeometry x="80" y="140" width="160" height="50" as="geometry" />
        </mxCell>
        <mxCell id="xqbtovnjNQGNgY8jdyhV-53" value="AGameState" style="html=1;whiteSpace=wrap;fontSize=20;" vertex="1" parent="xqbtovnjNQGNgY8jdyhV-5">
          <mxGeometry x="80" y="450" width="160" height="50" as="geometry" />
        </mxCell>
        <mxCell id="xqbtovnjNQGNgY8jdyhV-54" value="AWorldSettings" style="html=1;whiteSpace=wrap;fontSize=20;" vertex="1" parent="xqbtovnjNQGNgY8jdyhV-5">
          <mxGeometry x="80" y="565" width="160" height="50" as="geometry" />
        </mxCell>
        <mxCell id="xqbtovnjNQGNgY8jdyhV-55" value="APlayerState" style="html=1;whiteSpace=wrap;fontSize=20;" vertex="1" parent="xqbtovnjNQGNgY8jdyhV-5">
          <mxGeometry x="80" y="705" width="160" height="50" as="geometry" />
        </mxCell>
        <mxCell id="xqbtovnjNQGNgY8jdyhV-56" value="AInfo" style="html=1;whiteSpace=wrap;fontSize=20;" vertex="1" parent="xqbtovnjNQGNgY8jdyhV-5">
          <mxGeometry x="300" y="645" width="160" height="50" as="geometry" />
        </mxCell>
        <mxCell id="xqbtovnjNQGNgY8jdyhV-58" value="" style="endArrow=block;dashed=1;endFill=0;endSize=12;html=1;rounded=0;exitX=1;exitY=0.5;exitDx=0;exitDy=0;entryX=0;entryY=0.5;entryDx=0;entryDy=0;" edge="1" parent="xqbtovnjNQGNgY8jdyhV-5" source="xqbtovnjNQGNgY8jdyhV-53" target="xqbtovnjNQGNgY8jdyhV-56">
          <mxGeometry width="160" relative="1" as="geometry">
            <mxPoint x="190" y="390" as="sourcePoint" />
            <mxPoint x="350" y="390" as="targetPoint" />
            <Array as="points">
              <mxPoint x="260" y="475" />
              <mxPoint x="260" y="670" />
            </Array>
          </mxGeometry>
        </mxCell>
        <mxCell id="xqbtovnjNQGNgY8jdyhV-60" value="" style="endArrow=block;dashed=1;endFill=0;endSize=12;html=1;rounded=0;exitX=1;exitY=0.5;exitDx=0;exitDy=0;entryX=0;entryY=0.5;entryDx=0;entryDy=0;" edge="1" parent="xqbtovnjNQGNgY8jdyhV-5" source="xqbtovnjNQGNgY8jdyhV-55" target="xqbtovnjNQGNgY8jdyhV-56">
          <mxGeometry width="160" relative="1" as="geometry">
            <mxPoint x="210" y="410" as="sourcePoint" />
            <mxPoint x="370" y="410" as="targetPoint" />
            <Array as="points">
              <mxPoint x="260" y="730" />
              <mxPoint x="260" y="670" />
            </Array>
          </mxGeometry>
        </mxCell>
        <mxCell id="xqbtovnjNQGNgY8jdyhV-59" value="" style="endArrow=block;dashed=1;endFill=0;endSize=12;html=1;rounded=0;entryX=0;entryY=0.5;entryDx=0;entryDy=0;exitX=1;exitY=0.5;exitDx=0;exitDy=0;" edge="1" parent="xqbtovnjNQGNgY8jdyhV-5" source="xqbtovnjNQGNgY8jdyhV-54" target="xqbtovnjNQGNgY8jdyhV-56">
          <mxGeometry width="160" relative="1" as="geometry">
            <mxPoint x="200" y="400" as="sourcePoint" />
            <mxPoint x="360" y="400" as="targetPoint" />
            <Array as="points">
              <mxPoint x="260" y="590" />
              <mxPoint x="260" y="670" />
            </Array>
          </mxGeometry>
        </mxCell>
        <mxCell id="xqbtovnjNQGNgY8jdyhV-29" value="" style="endArrow=open;html=1;endSize=12;startArrow=diamondThin;startSize=14;startFill=0;align=left;verticalAlign=bottom;rounded=0;exitX=1;exitY=0.5;exitDx=0;exitDy=0;entryX=0;entryY=0.5;entryDx=0;entryDy=0;fontSize=20;" edge="1" parent="1" source="xqbtovnjNQGNgY8jdyhV-7" target="xqbtovnjNQGNgY8jdyhV-26">
          <mxGeometry x="-0.2" y="10" relative="1" as="geometry">
            <mxPoint x="210" y="260" as="sourcePoint" />
            <mxPoint x="210" y="310" as="targetPoint" />
            <mxPoint as="offset" />
          </mxGeometry>
        </mxCell>
        <mxCell id="xqbtovnjNQGNgY8jdyhV-34" value="" style="endArrow=open;html=1;endSize=12;startArrow=diamondThin;startSize=14;startFill=0;align=left;verticalAlign=bottom;rounded=0;exitX=1;exitY=0.5;exitDx=0;exitDy=0;entryX=0;entryY=0.5;entryDx=0;entryDy=0;fontSize=20;" edge="1" parent="1" source="xqbtovnjNQGNgY8jdyhV-8" target="xqbtovnjNQGNgY8jdyhV-27">
          <mxGeometry y="10" relative="1" as="geometry">
            <mxPoint x="810" y="435" as="sourcePoint" />
            <mxPoint x="860" y="435" as="targetPoint" />
            <mxPoint as="offset" />
          </mxGeometry>
        </mxCell>
        <mxCell id="xqbtovnjNQGNgY8jdyhV-36" value="" style="endArrow=open;endFill=1;endSize=12;html=1;rounded=0;entryX=1;entryY=0.5;entryDx=0;entryDy=0;exitX=0;exitY=0.5;exitDx=0;exitDy=0;" edge="1" parent="1" source="xqbtovnjNQGNgY8jdyhV-35" target="xqbtovnjNQGNgY8jdyhV-9">
          <mxGeometry width="160" relative="1" as="geometry">
            <mxPoint x="670" y="570" as="sourcePoint" />
            <mxPoint x="830" y="570" as="targetPoint" />
          </mxGeometry>
        </mxCell>
        <mxCell id="xqbtovnjNQGNgY8jdyhV-39" value="" style="endArrow=open;endFill=1;endSize=12;html=1;rounded=0;entryX=1;entryY=0.5;entryDx=0;entryDy=0;exitX=0;exitY=0.5;exitDx=0;exitDy=0;" edge="1" parent="1" source="xqbtovnjNQGNgY8jdyhV-38" target="xqbtovnjNQGNgY8jdyhV-10">
          <mxGeometry width="160" relative="1" as="geometry">
            <mxPoint x="590" y="545" as="sourcePoint" />
            <mxPoint x="290" y="545" as="targetPoint" />
          </mxGeometry>
        </mxCell>
        <mxCell id="xqbtovnjNQGNgY8jdyhV-42" value="" style="endArrow=open;endFill=1;endSize=12;html=1;rounded=0;entryX=1;entryY=0.5;entryDx=0;entryDy=0;exitX=0;exitY=0.5;exitDx=0;exitDy=0;" edge="1" parent="1" source="xqbtovnjNQGNgY8jdyhV-40" target="xqbtovnjNQGNgY8jdyhV-11">
          <mxGeometry width="160" relative="1" as="geometry">
            <mxPoint x="590" y="655" as="sourcePoint" />
            <mxPoint x="290" y="655" as="targetPoint" />
          </mxGeometry>
        </mxCell>
        <mxCell id="xqbtovnjNQGNgY8jdyhV-51" value="" style="endArrow=block;dashed=1;endFill=0;endSize=12;html=1;rounded=0;entryX=1;entryY=0.5;entryDx=0;entryDy=0;exitX=0;exitY=0.5;exitDx=0;exitDy=0;" edge="1" parent="1" source="xqbtovnjNQGNgY8jdyhV-50" target="xqbtovnjNQGNgY8jdyhV-13">
          <mxGeometry width="160" relative="1" as="geometry">
            <mxPoint x="670" y="930" as="sourcePoint" />
            <mxPoint x="830" y="930" as="targetPoint" />
          </mxGeometry>
        </mxCell>
        <mxCell id="xqbtovnjNQGNgY8jdyhV-57" value="" style="endArrow=block;dashed=1;endFill=0;endSize=12;html=1;rounded=0;exitX=1;exitY=0.5;exitDx=0;exitDy=0;entryX=0;entryY=0.5;entryDx=0;entryDy=0;" edge="1" parent="1" source="xqbtovnjNQGNgY8jdyhV-28" target="xqbtovnjNQGNgY8jdyhV-56">
          <mxGeometry width="160" relative="1" as="geometry">
            <mxPoint x="910" y="590" as="sourcePoint" />
            <mxPoint x="1070" y="590" as="targetPoint" />
            <Array as="points">
              <mxPoint x="1430" y="425" />
              <mxPoint x="1430" y="800" />
            </Array>
          </mxGeometry>
        </mxCell>
        <mxCell id="xqbtovnjNQGNgY8jdyhV-62" value="" style="endArrow=open;html=1;endSize=12;startArrow=diamondThin;startSize=14;startFill=1;edgeStyle=orthogonalEdgeStyle;align=left;verticalAlign=bottom;rounded=0;exitX=1;exitY=1;exitDx=0;exitDy=0;curved=1;" edge="1" parent="1" source="xqbtovnjNQGNgY8jdyhV-7" target="xqbtovnjNQGNgY8jdyhV-52">
          <mxGeometry x="-1" y="3" relative="1" as="geometry">
            <mxPoint x="320" y="380" as="sourcePoint" />
            <mxPoint x="480" y="380" as="targetPoint" />
            <Array as="points">
              <mxPoint x="430" y="350" />
              <mxPoint x="430" y="370" />
              <mxPoint x="1060" y="370" />
              <mxPoint x="1060" y="295" />
            </Array>
          </mxGeometry>
        </mxCell>
        <mxCell id="xqbtovnjNQGNgY8jdyhV-65" value="" style="endArrow=diamondThin;endFill=1;endSize=24;html=1;rounded=0;entryX=1;entryY=1;entryDx=0;entryDy=0;exitX=0;exitY=0.5;exitDx=0;exitDy=0;edgeStyle=orthogonalEdgeStyle;curved=1;" edge="1" parent="1" source="xqbtovnjNQGNgY8jdyhV-53" target="xqbtovnjNQGNgY8jdyhV-35">
          <mxGeometry width="160" relative="1" as="geometry">
            <mxPoint x="770" y="660" as="sourcePoint" />
            <mxPoint x="930" y="660" as="targetPoint" />
            <Array as="points">
              <mxPoint x="950" y="605" />
              <mxPoint x="950" y="560" />
            </Array>
          </mxGeometry>
        </mxCell>
      </root>
    </mxGraphModel>
  </diagram>
</mxfile>
